.
 
http://www.scenetime.com    -   SceneTime [ We been having it ] !!!


How come you press harder on a remote control when you know the battery is dead? so you better seed to get speed ;)

        Seed back for speed


...................................NFO:.................................................[img]http://leetleech.org/images/09075400599109116520.jpg[/img]
[img]http://leetleech.org/images/66845418191260523343.png[/img]
[img]http://leetleech.org/images/86060446151635233135.png[/img]
[img]http://leetleech.org/images/40067265111805360997.png[/img]
[img]http://leetleech.org/images/59274159164109194934.png[/img]
[img]http://leetleech.org/images/95811333541025603718.png[/img]
General
Complete name                    : C:\Users\coop\Desktop\Hesher.2010.Dvd.Rip.Xvid.TCM\H.2010.TCM.avi
Format                           : AVI
Format/Info                      : Audio Video Interleave
File size                        : 800 MiB
Duration                         : 1h 41mn
Overall bit rate                 : 1 103 Kbps
Movie name                       : H.2010.TCM
Encoded by                       : Cooperman
Writing application              : VirtualDubMod 1.5.4.1 (build 2178/release) 
Copyright                        : TCM

Video
ID                               : 0
Format                           : MPEG-4 Visual
Format profile                   : Advanced Simple@L5
Format settings, BVOP            : 1
Format settings, QPel            : No
Format settings, GMC             : No warppoints
Format settings, Matrix          : Custom
Codec ID                         : XVID
Codec ID/Hint                    : XviD
Duration                         : 1h 41mn
Bit rate                         : 984 Kbps
Width                            : 672 pixels
Height                           : 384 pixels
Display aspect ratio             : 16:9
Frame rate                       : 23.976 fps
Color space                      : YUV
Chroma subsampling               : 4:2:0
Bit depth                        : 8 bits
Scan type                        : Progressive
Compression mode                 : Lossy
Bits/(Pixel*Frame)               : 0.159
Stream size                      : 714 MiB (89%)
Writing library                  : XviD 64

Audio
ID                               : 1
Format                           : MPEG Audio
Format version                   : Version 1
Format profile                   : Layer 3
Mode                             : Joint stereo
Mode extension                   : MS Stereo
Codec ID                         : 55
Codec ID/Hint                    : MP3
Duration                         : 1h 41mn
Bit rate mode                    : Constant
Bit rate                         : 112 Kbps
Channel(s)                       : 2 channels
Sampling rate                    : 44.1 KHz
Compression mode                 : Lossy
Stream size                      : 81.2 MiB (10%)
Alignment                        : Split accross interleaves
Interleave, duration             : 83 ms (2.00 video frames)
Interleave, preload duration     : 500 ms
Writing library                  : LAME3.98r
Encoding settings                : -m j -V 4 -q 2 -lowpass 15.6 -b 112
Language                         : English
Subs                             : No
Sample                           : Yes

soucre file : Hesher.2010.DVDR-ATTENTATET.
THANKS ATTENTATET :)

57x14.mb rars[main.movie.avi]
sample[avi]
snaps.n.thumbs
sfv
nfo
Enjoy the movie!
t.c.m@hushmail.com
GREATINGS TO ALL THE P2P PLACES I LURK AT!
AND A FOOK YOU TO ALL RETAGERS!